<svg width="36" height="31" viewBox="0 0 36 31" fill="none" xmlns="http://www.w3.org/2000/svg">
<rect y="0.5" width="36" height="30" rx="5" fill="#C3D2F3"/>
<path d="M18 17.5C18.5304 17.5 19.0391 17.2893 19.4142 16.9142C19.7893 16.5391 20 16.0304 20 15.5C20 14.9696 19.7893 14.4609 19.4142 14.0858C19.0391 13.7107 18.5304 13.5 18 13.5C17.4696 13.5 16.9609 13.7107 16.5858 14.0858C16.2107 14.4609 16 14.9696 16 15.5C16 16.0304 16.2107 16.5391 16.5858 16.9142C16.9609 17.2893 17.4696 17.5 18 17.5Z" fill="#0843C3"/>
<path d="M10 11.5C10 11.2348 10.1054 10.9804 10.2929 10.7929C10.4804 10.6054 10.7348 10.5 11 10.5H25C25.2652 10.5 25.5196 10.6054 25.7071 10.7929C25.8946 10.9804 26 11.2348 26 11.5V19.5C26 19.7652 25.8946 20.0196 25.7071 20.2071C25.5196 20.3946 25.2652 20.5 25 20.5H11C10.7348 20.5 10.4804 20.3946 10.2929 20.2071C10.1054 20.0196 10 19.7652 10 19.5V11.5ZM13 11.5C13 12.0304 12.7893 12.5391 12.4142 12.9142C12.0391 13.2893 11.5304 13.5 11 13.5V17.5C11.5304 17.5 12.0391 17.7107 12.4142 18.0858C12.7893 18.4609 13 18.9696 13 19.5H23C23 18.9696 23.2107 18.4609 23.5858 18.0858C23.9609 17.7107 24.4696 17.5 25 17.5V13.5C24.4696 13.5 23.9609 13.2893 23.5858 12.9142C23.2107 12.5391 23 12.0304 23 11.5H13Z" fill="#0843C3"/>
</svg>
