<svg width="529" height="498" viewBox="0 0 529 498" fill="none" xmlns="http://www.w3.org/2000/svg">
<path d="M363.869 190.258L337.45 186.526L341.121 160.29L367.552 163.961L363.869 190.258ZM338.833 185.486L362.829 188.875L366.194 165.063L342.186 161.673L338.833 185.486ZM368.078 150.929L343.911 147.515L347.411 122.724L347.643 122.577C354.045 118.653 360.132 114.239 365.851 109.374C371.201 104.865 375.857 99.5915 379.666 93.7232C383.269 88.1297 385.615 81.8216 386.543 75.2337C387.265 70.131 386.678 65.9583 384.794 62.8013C382.909 59.6442 379.801 57.8209 375.506 57.2091C373.868 56.8859 372.183 56.8904 370.546 57.2223C368.91 57.5541 367.356 58.2067 365.974 59.1425C364.682 60.1425 363.612 61.3993 362.831 62.8335C362.049 64.2678 361.574 65.8484 361.434 67.4757C361.194 69.0715 361.153 70.6909 361.311 72.2969C361.471 73.8754 361.679 75.5763 361.936 77.3506L362.021 77.9991L336.777 79.8713L336.679 79.3452C336.156 76.7723 335.841 74.1616 335.737 71.5382C335.642 68.9864 335.773 66.4312 336.128 63.9025C337.634 53.2444 342.173 45.0826 349.589 39.6373C357.004 34.192 366.965 32.2953 379.116 34.0329C391.524 35.7828 400.799 40.5795 406.709 48.2764C412.62 55.9732 414.737 66.1786 412.987 78.5865C411.976 86.2838 409.447 93.7039 405.547 100.417C401.605 107.001 396.621 112.902 390.79 117.891C384.529 123.257 377.8 128.052 370.685 132.22L368.078 150.929ZM345.294 146.475L367.038 149.547L369.596 131.412L369.853 131.265C376.995 127.1 383.744 122.296 390.019 116.912C395.748 111.996 400.644 106.186 404.519 99.7069C408.359 93.1469 410.855 85.8883 411.861 78.354C413.562 66.2887 411.531 56.4015 405.828 48.9861C400.126 41.5707 391.144 36.9208 379.03 35.2077C367.21 33.5435 357.567 35.3545 350.396 40.5918C343.226 45.8291 338.796 53.6972 337.34 64.0127C336.995 66.4684 336.868 68.9499 336.961 71.4281C337.054 73.8065 337.324 76.1746 337.768 78.5131L360.626 76.8122C360.418 75.2581 360.235 73.7653 360.088 72.3581C359.921 70.6541 359.966 68.936 360.222 67.2432C360.383 65.4546 360.913 63.7187 361.779 62.1454C362.644 60.572 363.827 59.1953 365.252 58.1024C366.759 57.0684 368.457 56.3445 370.247 55.9726C372.037 55.6008 373.883 55.5885 375.677 55.9365C380.364 56.5973 383.778 58.6775 385.834 62.0548C387.889 65.4321 388.514 69.8985 387.755 75.2826C386.811 82.0627 384.402 88.5559 380.694 94.3106C376.82 100.275 372.086 105.635 366.647 110.218C360.95 115.057 354.896 119.458 348.536 123.385L345.294 146.475Z" fill="#263238"/>
<path d="M209.848 250.218C209.848 250.218 131.302 251.258 128.854 256.85C126.407 262.442 115.235 330.172 114.537 353.519C113.84 376.867 113.497 392.273 115.932 395.062C118.367 397.852 156.436 419.854 156.436 419.854C156.436 419.854 138.631 482.346 144.199 484.451C149.767 486.556 184.005 495.268 205.994 495.623C227.983 495.978 249.642 495.966 251.392 495.966C253.142 495.966 309.344 498.058 328.899 493.518C348.453 488.979 354.375 488.624 354.375 480.951C354.375 473.279 349.481 463.82 349.138 462.107C348.795 460.394 362.415 328.03 354.73 295.566C347.046 263.103 336.926 250.523 329.241 248.431C321.557 246.338 266.749 247.733 266.749 247.733L209.848 250.218Z" fill="#CDAFAF"/>
<path d="M281.529 497.128C272.964 497.128 263.407 496.994 253.104 496.7H251.403C247.487 496.7 226.93 496.7 206.005 496.357C183.649 496.002 149.435 487.18 144.002 485.136C142.778 484.696 140.001 483.643 147.673 451.351C151.026 437.132 155.015 422.974 155.749 420.27C151.405 417.761 117.877 398.305 115.515 395.589C112.933 392.64 113.227 378.457 113.961 353.629C114.671 329.976 126.026 261.965 128.327 256.691C130.774 251.025 196.668 249.863 209.872 249.691L266.772 247.244C269.024 247.183 321.837 245.873 329.448 247.966C334.171 249.19 346.127 256.458 355.377 295.542C361.704 322.291 353.75 415.143 350.752 450.091C350.177 456.808 349.761 461.666 349.798 462.144C350.073 462.996 350.391 463.833 350.752 464.652C352.245 468.323 355.035 475.225 355.035 481.074C355.035 488.416 350.055 489.493 335.248 492.833L329.13 494.24C320.687 496.174 304.179 497.128 281.529 497.128ZM301.536 247.966C284.907 247.966 267.09 248.406 266.772 248.419L209.872 250.866C179.647 251.27 131.092 253.313 129.428 257.131C127.14 262.356 115.87 330.049 115.16 353.617C114.548 374.211 114.01 392.003 116.384 394.744C118.33 396.971 146.168 413.295 156.765 419.401C156.883 419.469 156.974 419.575 157.025 419.702C157.076 419.828 157.084 419.968 157.046 420.099C148.346 450.556 141.261 482.713 144.43 483.937C149.827 485.956 183.808 494.718 206.017 495.072C226.954 495.403 247.487 495.415 251.403 495.415H253.14C290.474 496.467 317.334 495.599 328.763 492.968C331.002 492.442 333.058 491.989 334.942 491.561C349.406 488.293 353.774 487.302 353.774 480.988C353.774 475.384 351.046 468.641 349.577 465.019C349.178 464.12 348.835 463.196 348.549 462.254C348.488 461.899 348.66 459.745 349.504 449.895C352.49 414.996 360.431 322.303 354.142 295.713C345.05 257.266 333.596 250.266 329.093 249.03C325.875 248.223 314.042 247.966 301.536 247.966Z" fill="#263238"/>
<path d="M243.524 283.061C243.404 283.063 243.286 283.029 243.186 282.963C243.086 282.898 243.007 282.804 242.961 282.693C242.928 282.62 242.911 282.54 242.909 282.459C242.908 282.379 242.922 282.299 242.952 282.223C242.981 282.148 243.025 282.08 243.082 282.022C243.138 281.964 243.205 281.918 243.279 281.886C246.061 280.697 248.767 279.336 251.38 277.811C251.449 277.771 251.527 277.745 251.606 277.734C251.686 277.724 251.768 277.73 251.846 277.751C251.923 277.772 251.996 277.808 252.06 277.857C252.124 277.906 252.178 277.967 252.218 278.037C252.258 278.107 252.284 278.184 252.294 278.264C252.305 278.344 252.299 278.426 252.278 278.503C252.257 278.581 252.221 278.654 252.172 278.718C252.123 278.782 252.061 278.835 251.991 278.876C249.335 280.424 246.584 281.805 243.756 283.012C243.683 283.045 243.604 283.062 243.524 283.061Z" fill="#263238"/>
<path d="M255.381 276.673C255.28 276.672 255.181 276.647 255.092 276.6C255.002 276.554 254.925 276.486 254.867 276.404C254.78 276.267 254.75 276.102 254.784 275.944C254.819 275.785 254.915 275.647 255.051 275.559C264.778 269.081 273.317 260.976 280.295 251.6C280.341 251.534 280.4 251.478 280.469 251.434C280.537 251.391 280.613 251.362 280.693 251.348C280.772 251.335 280.854 251.337 280.933 251.355C281.011 251.373 281.086 251.406 281.151 251.453C281.217 251.499 281.273 251.556 281.316 251.624C281.36 251.691 281.389 251.766 281.402 251.845C281.416 251.923 281.414 252.004 281.396 252.082C281.378 252.159 281.345 252.233 281.298 252.298C274.227 261.795 265.576 270.007 255.724 276.575C255.622 276.642 255.503 276.677 255.381 276.673Z" fill="#263238"/>
<path d="M262.576 280.099C262.466 280.098 262.358 280.068 262.264 280.013C262.169 279.957 262.091 279.877 262.037 279.781C261.999 279.711 261.974 279.633 261.965 279.553C261.957 279.473 261.964 279.392 261.987 279.314C262.01 279.237 262.047 279.165 262.098 279.102C262.149 279.04 262.211 278.988 262.282 278.949C268.4 275.67 275.559 265.672 275.632 265.574C275.675 265.501 275.733 265.438 275.802 265.389C275.871 265.34 275.95 265.305 276.033 265.288C276.116 265.27 276.201 265.27 276.284 265.287C276.367 265.305 276.446 265.339 276.515 265.389C276.584 265.438 276.642 265.501 276.685 265.574C276.728 265.647 276.756 265.728 276.766 265.813C276.776 265.897 276.769 265.982 276.744 266.063C276.72 266.145 276.679 266.22 276.623 266.284C276.33 266.7 269.281 276.612 262.857 280.026C262.771 280.075 262.674 280.1 262.576 280.099Z" fill="#263238"/>
<path d="M226.221 378.408C226.092 378.407 225.967 378.364 225.864 378.287C225.761 378.21 225.684 378.103 225.646 377.98L223.59 371.593C223.563 371.516 223.553 371.435 223.558 371.355C223.563 371.274 223.585 371.196 223.622 371.124C223.658 371.052 223.709 370.988 223.771 370.936C223.833 370.884 223.904 370.845 223.982 370.822C224.136 370.771 224.304 370.785 224.448 370.858C224.593 370.931 224.702 371.059 224.753 371.213L226.808 377.601C226.858 377.755 226.845 377.923 226.772 378.067C226.699 378.212 226.571 378.321 226.417 378.372C226.354 378.396 226.288 378.408 226.221 378.408Z" fill="#263238"/>
<path d="M237.429 413.209C237.299 413.209 237.174 413.168 237.07 413.091C236.966 413.013 236.89 412.905 236.853 412.781L227.749 384.527C227.699 384.364 227.715 384.189 227.795 384.038C227.874 383.888 228.009 383.775 228.172 383.725C228.334 383.675 228.509 383.691 228.66 383.77C228.81 383.849 228.923 383.985 228.973 384.147L238.077 412.414C238.124 412.568 238.109 412.735 238.036 412.878C237.964 413.022 237.838 413.132 237.686 413.185L237.429 413.209Z" fill="#263238"/>
<path d="M240.232 413.907C240.114 413.912 239.997 413.878 239.901 413.809C239.833 413.767 239.774 413.711 239.727 413.645C239.68 413.58 239.646 413.506 239.628 413.427C239.61 413.349 239.607 413.268 239.621 413.188C239.634 413.109 239.663 413.033 239.706 412.965L248.785 398.66C248.826 398.59 248.881 398.53 248.947 398.482C249.012 398.434 249.087 398.4 249.165 398.382C249.244 398.363 249.326 398.361 249.406 398.375C249.486 398.39 249.562 398.42 249.629 398.464C249.765 398.552 249.861 398.689 249.898 398.847C249.934 399.004 249.908 399.17 249.825 399.309L240.746 413.625C240.69 413.711 240.613 413.781 240.524 413.83C240.434 413.879 240.334 413.906 240.232 413.907Z" fill="#263238"/>
<path d="M260.826 405.525C260.707 405.529 260.589 405.498 260.487 405.434C260.386 405.371 260.306 405.279 260.257 405.17C260.208 405.061 260.193 404.939 260.214 404.822C260.235 404.704 260.29 404.595 260.373 404.509L282.399 379.718C282.508 379.596 282.661 379.523 282.823 379.513C282.986 379.504 283.146 379.56 283.268 379.669C283.39 379.778 283.463 379.93 283.472 380.093C283.482 380.256 283.426 380.416 283.317 380.538L261.291 405.329C261.232 405.393 261.16 405.444 261.08 405.478C261 405.512 260.913 405.528 260.826 405.525Z" fill="#263238"/>
<path d="M251.402 496.651H251.23L203.838 482.836C203.761 482.813 203.689 482.776 203.626 482.726C203.564 482.675 203.511 482.613 203.473 482.543C203.434 482.472 203.41 482.395 203.401 482.315C203.392 482.235 203.399 482.154 203.422 482.077C203.443 481.999 203.48 481.926 203.529 481.863C203.579 481.799 203.642 481.746 203.713 481.707C203.783 481.668 203.861 481.644 203.942 481.636C204.022 481.628 204.103 481.637 204.181 481.661L251.561 495.452C251.723 495.474 251.87 495.561 251.968 495.692C252.067 495.822 252.11 495.987 252.087 496.149C252.064 496.312 251.978 496.458 251.847 496.557C251.716 496.655 251.552 496.698 251.39 496.675L251.402 496.651Z" fill="#263238"/>
<path d="M198.432 481.221H198.261L190.136 478.847C189.974 478.801 189.836 478.693 189.753 478.546C189.671 478.399 189.65 478.226 189.695 478.063C189.741 477.901 189.849 477.764 189.996 477.681C190.143 477.598 190.316 477.578 190.479 477.623L198.604 479.997C198.681 480.019 198.753 480.057 198.815 480.107C198.878 480.157 198.93 480.22 198.969 480.29C199.007 480.36 199.032 480.438 199.041 480.518C199.049 480.598 199.042 480.678 199.02 480.756C198.987 480.887 198.912 481.004 198.806 481.088C198.699 481.173 198.568 481.219 198.432 481.221Z" fill="#263238"/>
<path d="M209.357 94.9713C209.357 94.9713 184.701 89.3058 179.99 95.6443C175.278 101.983 184.664 107.979 183.33 109.313C181.996 110.646 153.326 125.306 155.651 139.647C157.976 153.989 177.322 168.648 177.995 172.686C178.668 176.724 155.651 178.021 152.653 184.017C149.655 190.013 145.311 218.353 170.323 227.69C195.334 237.026 226.611 221.351 235.324 221.351C244.036 221.351 252.663 238.36 262.66 237.357C268.751 236.66 274.351 233.682 278.335 229.024C278.335 229.024 288.663 243.365 303.665 237.357C318.667 231.349 336.007 210.35 328.677 204.024C321.347 197.698 313.002 195.691 318.337 190.025C323.672 184.36 334.673 169.358 333.021 156.35C331.369 143.343 316.012 142.352 310.016 138.35C304.02 134.349 316.685 127.68 316.355 116.679C316.024 105.678 308.009 87.3112 267.347 75.0746C226.685 62.8379 206.678 68.736 204.671 79.0759C204.044 81.9056 204.145 84.8481 204.964 87.628C205.784 90.408 207.295 92.9346 209.357 94.9713Z" fill="#263238"/>
<path d="M296.422 239.388C286.89 239.388 280.159 232.132 278.361 229.954C274.315 234.444 268.765 237.3 262.759 237.981C257.191 238.544 252.15 233.906 247.292 229.415C243.131 225.573 239.191 221.951 235.361 221.951C233.024 221.951 228.827 223.174 223.516 224.741C209.505 228.84 188.324 235.032 170.152 228.253C161.464 225.01 155.468 219.247 152.238 211.121C147.955 200.206 150.06 187.872 152.14 183.736C153.853 180.322 161.146 178.413 167.582 176.737C172.073 175.513 177.653 174.106 177.372 172.772C177.09 171.438 174.606 168.795 171.633 165.589C165.649 159.116 156.594 149.339 155.04 139.77C152.996 127.227 173.089 114.942 180.663 110.316C181.716 109.668 182.719 109.092 182.878 108.897C182.481 108.226 182.031 107.587 181.532 106.988C179.501 104.345 176.099 99.9027 179.489 95.3018C183.6 89.7219 201.515 92.8544 207.535 93.9925C205.872 91.8936 204.7 89.4492 204.105 86.8384C203.51 84.2276 203.507 81.5168 204.097 78.9047C204.463 77.3302 205.161 75.8519 206.144 74.5689C207.128 73.2859 208.374 72.2276 209.799 71.4648C219.992 65.3465 241.051 66.3989 267.543 74.4383C309.833 87.2623 316.674 106.4 316.992 116.679C317.151 122.21 314.189 126.628 311.803 130.139C310.176 132.587 308.781 134.643 309.075 136.148C309.168 136.499 309.333 136.828 309.558 137.115C309.783 137.401 310.064 137.638 310.384 137.812C312.426 138.992 314.588 139.951 316.833 140.675C323.771 143.245 332.398 146.451 333.646 156.252C335.285 169.04 325.08 183.748 318.815 190.417C318.353 190.8 317.979 191.278 317.72 191.819C317.46 192.359 317.32 192.95 317.31 193.55C317.506 195.336 319.916 196.964 322.975 199.007C325.103 200.393 327.147 201.905 329.094 203.535C329.923 204.323 330.528 205.317 330.846 206.416C331.164 207.515 331.185 208.678 330.905 209.788C329.363 218.99 315.744 233.172 303.923 237.932C301.538 238.889 298.992 239.383 296.422 239.388ZM278.373 228.375C278.467 228.376 278.56 228.4 278.643 228.445C278.726 228.49 278.797 228.554 278.85 228.632C278.96 228.767 289.092 242.508 303.47 236.757C314.973 232.156 328.213 218.402 329.693 209.58C330.073 207.304 329.608 205.578 328.298 204.452C326.385 202.865 324.379 201.394 322.29 200.047C318.974 197.82 316.355 196.058 316.086 193.721C316.074 192.94 316.233 192.166 316.552 191.454C316.871 190.741 317.343 190.108 317.934 189.597C323.636 183.479 334.025 168.795 332.434 156.424C331.272 147.369 323.024 144.309 316.404 141.85C314.07 141.094 311.822 140.094 309.699 138.864C309.245 138.6 308.85 138.247 308.537 137.827C308.224 137.406 307.999 136.927 307.875 136.417C307.484 134.422 308.94 132.244 310.788 129.491C313.076 126.089 315.915 121.855 315.768 116.716C315.462 106.767 308.756 88.2168 267.189 75.613C241.027 67.6715 220.335 66.5457 210.435 72.5172C209.157 73.1921 208.038 74.1316 207.152 75.2731C206.265 76.4146 205.633 77.7319 205.296 79.1372C204.681 81.8753 204.768 84.7244 205.549 87.4199C206.33 90.1154 207.779 92.5698 209.762 94.5553C209.864 94.6473 209.933 94.7697 209.959 94.9042C209.986 95.0387 209.968 95.1781 209.909 95.3018C209.847 95.4239 209.746 95.5216 209.621 95.5792C209.497 95.6369 209.357 95.6513 209.224 95.6199C202.469 94.0659 184.151 91.1291 180.517 96.0482C177.678 99.915 180.517 103.586 182.548 106.278C183.771 107.832 184.616 108.97 183.771 109.79C182.996 110.384 182.178 110.92 181.324 111.393C174.655 115.468 154.404 127.863 156.276 139.598C157.769 148.8 166.665 158.418 172.563 164.781C176.05 168.55 178.351 171.034 178.608 172.601C179.011 175.048 174.337 176.272 167.876 177.948C161.99 179.478 154.673 181.386 153.192 184.311C151.259 188.178 149.227 200.28 153.327 210.693C154.82 214.523 157.135 217.978 160.107 220.817C163.079 223.657 166.638 225.81 170.531 227.127C188.324 233.771 209.26 227.641 223.149 223.591C228.558 222.012 232.816 220.752 235.386 220.752C239.693 220.752 243.804 224.533 248.148 228.534C252.811 232.829 257.632 237.259 262.661 236.757C268.579 236.063 274.02 233.172 277.908 228.657C277.959 228.578 278.028 228.511 278.108 228.463C278.189 228.414 278.279 228.384 278.373 228.375Z" fill="#263238"/>
<path d="M213.799 201.932C213.799 201.932 205.466 253.937 205.135 255.602C204.805 257.266 219.819 272.268 240.132 269.6C252.031 268.17 262.966 262.349 270.797 253.277L264.471 201.601C264.471 201.601 247.131 209.935 236.461 209.604C225.791 209.274 213.799 201.932 213.799 201.932Z" fill="white"/>
<path d="M235.337 270.53C224.42 270.352 213.992 265.969 206.226 258.294C204.354 256.299 204.489 255.663 204.538 255.418C204.856 253.791 213.103 202.299 213.189 201.773C213.207 201.674 213.248 201.58 213.309 201.501C213.371 201.421 213.451 201.358 213.542 201.316C213.633 201.274 213.734 201.254 213.834 201.259C213.934 201.264 214.032 201.293 214.119 201.344C214.241 201.418 226.111 208.601 236.487 208.931C246.864 209.261 264.032 201.075 264.203 200.989C264.29 200.944 264.387 200.921 264.485 200.921C264.583 200.921 264.679 200.944 264.766 200.989C264.85 201.038 264.921 201.105 264.974 201.186C265.027 201.267 265.061 201.359 265.072 201.454L271.411 253.118C271.421 253.197 271.416 253.278 271.395 253.356C271.374 253.434 271.338 253.507 271.288 253.57C263.33 262.736 252.265 268.637 240.22 270.139C238.602 270.376 236.971 270.507 235.337 270.53ZM214.266 202.911C213.128 209.996 206.043 254.17 205.7 255.724C205.957 257.241 220.176 271.632 239.963 269.001C251.596 267.532 262.297 261.877 270.065 253.093L263.971 202.495C260.447 204.122 245.995 210.497 236.451 210.204C227.188 209.922 217.117 204.55 214.266 202.911Z" fill="#263238"/>
<path d="M210.375 229.831L245.482 223.04L213.801 201.932L210.375 229.831Z" fill="#263238"/>
<path d="M210.374 230.443C210.222 230.439 210.075 230.383 209.958 230.284C209.89 230.216 209.838 230.133 209.806 230.042C209.774 229.951 209.764 229.854 209.775 229.758L213.189 201.858C213.201 201.755 213.241 201.656 213.303 201.573C213.365 201.489 213.448 201.423 213.544 201.381C213.636 201.333 213.739 201.308 213.844 201.308C213.948 201.308 214.051 201.333 214.143 201.381L245.812 222.502C245.915 222.566 245.995 222.66 246.043 222.772C246.091 222.883 246.105 223.007 246.081 223.126C246.056 223.245 245.996 223.354 245.909 223.439C245.822 223.524 245.711 223.581 245.591 223.603L210.497 230.394L210.374 230.443ZM214.29 202.996L211.084 229.073L243.891 222.722L214.29 202.996Z" fill="#263238"/>
<path d="M195.275 156.081C195.275 156.081 189.401 148.641 186.709 158.039C184.017 167.437 195.715 178.841 195.715 178.841L195.275 156.081Z" fill="white"/>
<path d="M195.665 179.404C195.52 179.397 195.382 179.341 195.274 179.245C194.784 178.768 183.294 167.522 186.108 157.88C187.002 154.821 188.348 153.095 190.11 152.753C192.973 152.202 195.677 155.567 195.787 155.714C195.873 155.817 195.92 155.947 195.922 156.081L196.314 178.792C196.313 178.913 196.279 179.031 196.214 179.133C196.149 179.235 196.056 179.316 195.947 179.367C195.855 179.393 195.76 179.406 195.665 179.404ZM190.77 153.903C190.632 153.89 190.493 153.89 190.354 153.903C189.131 154.148 188.042 155.628 187.295 158.174C185.178 165.442 192.288 174.155 195.078 177.201L194.711 156.265C193.964 155.481 192.276 153.903 190.721 153.903H190.77Z" fill="#263238"/>
<path d="M279.426 156.081C279.426 156.081 285.299 148.641 287.991 158.039C290.684 167.437 278.985 178.841 278.985 178.841L279.426 156.081Z" fill="white"/>
<path d="M279.033 179.404C278.952 179.417 278.869 179.417 278.788 179.404C278.676 179.357 278.581 179.277 278.515 179.174C278.449 179.071 278.417 178.951 278.421 178.829L278.813 156.118C278.816 155.986 278.859 155.858 278.935 155.751C279.058 155.604 281.774 152.227 284.613 152.789C286.387 153.132 287.733 154.857 288.627 157.917C291.429 167.559 279.939 178.805 279.449 179.282C279.331 179.373 279.182 179.417 279.033 179.404ZM280.024 156.301L279.706 177.238C282.484 174.191 289.606 165.479 287.489 158.21C286.742 155.665 285.678 154.184 284.417 153.94C282.729 153.622 280.795 155.408 280.024 156.301Z" fill="#263238"/>
<path d="M213.727 109.068C213.727 109.068 196.914 125.404 194.479 130.299C192.044 135.193 193.023 190.968 195.703 196.376C198.383 201.785 225.181 222.697 229.561 224.398C233.942 226.099 243.94 227.812 251.734 223.909C259.529 220.005 278.288 200.035 280.246 194.92C282.203 189.805 279.756 131.29 278.532 125.722C277.309 120.154 247.892 100.05 235.411 99.0829C222.929 98.1162 213.727 109.068 213.727 109.068Z" fill="white"/>
<path d="M240.549 226.797C236.718 226.817 232.913 226.171 229.304 224.888C224.592 223.052 197.831 201.993 195.114 196.572C192.398 191.151 191.346 135.083 193.891 129.993C196.338 125.098 212.246 109.57 213.237 108.652C213.849 107.93 223.026 97.4921 235.422 98.471C247.524 99.4255 277.724 119.175 279.094 125.502C280.232 130.763 282.765 189.805 280.771 195.055C278.678 200.561 259.687 220.519 251.966 224.423C248.392 226.078 244.486 226.891 240.549 226.797ZM233.819 99.6335C222.61 99.6335 214.24 109.362 214.155 109.423C213.983 109.582 197.39 125.734 195.029 130.458C192.667 135.181 193.707 190.858 196.252 195.936C198.798 201.014 225.327 221.914 229.793 223.652C234.492 225.475 244.134 226.858 251.476 223.187C259.344 219.259 277.883 199.252 279.682 194.529C281.652 189.365 279.082 130.898 277.944 125.685C276.806 120.472 247.646 100.649 235.361 99.7069C234.859 99.7069 234.357 99.6335 233.856 99.6335H233.819Z" fill="#263238"/>
<path d="M226.942 99.0829C226.942 99.0829 252.125 122.063 270.235 122.944L288.358 123.825C288.358 123.825 248.589 118.527 236.218 91.5818C236.218 91.5818 222.525 80.1283 226.942 99.0829Z" fill="#263238"/>
<path d="M288.358 124.437L270.247 123.556C252.125 122.675 227.603 100.49 226.563 99.5356C226.474 99.4528 226.41 99.3468 226.379 99.2297C224.923 92.9645 225.241 89.2936 227.358 87.9965C230.49 86.0753 236.034 90.5906 236.646 91.1046C236.719 91.1635 236.778 91.239 236.817 91.3248C248.907 117.658 288.076 123.14 288.468 123.226C288.626 123.244 288.77 123.324 288.871 123.447C288.971 123.57 289.02 123.728 289.006 123.886C288.988 124.043 288.91 124.187 288.79 124.289C288.67 124.392 288.515 124.444 288.358 124.437ZM227.493 98.7402C229.548 100.576 253.275 121.476 270.321 122.308L280.551 122.81C268.314 119.726 244.807 111.442 235.777 91.9367C234.186 90.6273 229.989 87.8007 228.006 89.0121C226.881 89.6974 225.938 91.9244 227.493 98.7647V98.7402Z" fill="#263238"/>
<path d="M242.996 169.86C242.842 169.86 242.693 169.802 242.58 169.698C242.466 169.594 242.396 169.45 242.384 169.297L240.438 144.689C240.432 144.608 240.442 144.528 240.466 144.451C240.491 144.374 240.531 144.303 240.583 144.242C240.635 144.18 240.699 144.13 240.771 144.093C240.843 144.057 240.921 144.034 241.001 144.028C241.082 144.022 241.163 144.031 241.239 144.056C241.316 144.081 241.387 144.12 241.448 144.173C241.51 144.225 241.56 144.289 241.597 144.361C241.634 144.432 241.656 144.511 241.662 144.591L243.608 169.199C243.614 169.279 243.605 169.36 243.58 169.437C243.556 169.514 243.516 169.585 243.464 169.646C243.411 169.708 243.348 169.758 243.276 169.795C243.204 169.831 243.125 169.853 243.045 169.86H242.996Z" fill="#263238"/>
<path d="M237.355 181.558C233.954 181.558 230.699 177.887 230.564 177.691C230.507 177.631 230.462 177.561 230.433 177.484C230.404 177.406 230.391 177.324 230.394 177.242C230.398 177.159 230.418 177.078 230.453 177.003C230.489 176.929 230.539 176.862 230.601 176.808C230.663 176.753 230.736 176.712 230.814 176.686C230.893 176.66 230.975 176.651 231.058 176.658C231.14 176.665 231.22 176.688 231.293 176.727C231.366 176.766 231.43 176.819 231.482 176.883C231.482 176.883 234.517 180.334 237.355 180.334C239.693 180.334 243.229 175.782 244.404 174.032C244.447 173.965 244.504 173.906 244.57 173.861C244.636 173.815 244.711 173.784 244.79 173.768C244.868 173.752 244.95 173.752 245.028 173.768C245.107 173.784 245.182 173.815 245.248 173.861C245.382 173.951 245.475 174.09 245.508 174.248C245.54 174.406 245.508 174.57 245.419 174.705C244.954 175.403 240.757 181.558 237.355 181.558Z" fill="#263238"/>
<path d="M233.489 192.84C232.742 192.84 231.984 192.84 231.225 192.766C223.687 192.265 218.071 183.112 217.826 182.72C217.784 182.651 217.756 182.574 217.744 182.495C217.732 182.415 217.736 182.333 217.755 182.255C217.774 182.177 217.809 182.103 217.857 182.038C217.905 181.973 217.965 181.918 218.034 181.876C218.103 181.834 218.18 181.806 218.26 181.794C218.339 181.782 218.421 181.786 218.499 181.805C218.578 181.824 218.652 181.859 218.717 181.907C218.782 181.955 218.837 182.015 218.878 182.084C218.878 182.182 224.409 191.078 231.311 191.543C236.331 191.713 241.348 191.144 246.203 189.854C246.365 189.809 246.539 189.83 246.686 189.912C246.832 189.995 246.94 190.132 246.986 190.295C247.031 190.457 247.01 190.631 246.928 190.778C246.845 190.924 246.708 191.032 246.545 191.078C242.28 192.189 237.896 192.78 233.489 192.84Z" fill="#263238"/>
<path d="M243.94 140.749C243.94 140.749 252.506 134.41 255.871 132.183C259.236 129.956 270.249 134.129 270.249 134.129C270.249 134.129 261.964 129.503 257.584 128.769C253.203 128.035 244.185 134.373 243.45 137.335C242.716 140.296 240.55 139.525 243.94 140.749Z" fill="#263238"/>
<path d="M243.939 141.312C243.87 141.323 243.8 141.323 243.731 141.312C242.116 140.736 241.639 140.565 241.492 140.088C241.465 139.897 241.487 139.703 241.555 139.523C241.623 139.344 241.736 139.184 241.883 139.06C242.362 138.548 242.7 137.919 242.862 137.237C243.658 134.043 252.896 127.447 257.681 128.255C262.123 128.989 270.211 133.492 270.554 133.676C270.687 133.753 270.788 133.877 270.835 134.024C270.882 134.171 270.874 134.33 270.811 134.471C270.746 134.612 270.631 134.723 270.488 134.782C270.345 134.841 270.185 134.844 270.04 134.789C267.066 133.664 258.794 131.118 256.212 132.783C252.847 134.936 244.392 141.226 244.306 141.287C244.188 141.328 244.061 141.336 243.939 141.312ZM242.899 139.66L243.841 140.014C245.297 138.925 252.492 133.615 255.539 131.657C257.289 130.531 260.63 130.861 263.713 131.534C261.729 130.569 259.639 129.838 257.485 129.356C253.435 128.696 244.698 134.838 244.025 137.433C243.851 138.275 243.463 139.059 242.899 139.709V139.66Z" fill="#263238"/>
<path d="M226.392 141.911C225.944 140.85 225.201 139.94 224.251 139.289C223.301 138.638 222.184 138.274 221.032 138.24C216.896 137.995 198.615 142.878 201.784 142.878C204.953 142.878 218.108 142.633 221.522 142.633C223.178 142.736 224.837 142.49 226.392 141.911Z" fill="#263238"/>
<path d="M201.784 143.502C201.613 143.526 201.439 143.502 201.281 143.433C201.124 143.363 200.988 143.252 200.89 143.11C200.833 143.007 200.804 142.891 200.804 142.774C200.804 142.656 200.833 142.54 200.89 142.437C201.637 141.214 217.654 137.432 221.044 137.64C222.315 137.675 223.548 138.077 224.595 138.798C225.642 139.519 226.457 140.528 226.942 141.703C226.992 141.844 226.99 141.998 226.936 142.137C226.882 142.276 226.78 142.391 226.648 142.462C225.004 143.079 223.25 143.35 221.497 143.257C219.759 143.257 215.501 143.257 211.316 143.379C207.131 143.502 203.338 143.502 201.784 143.502ZM220.677 138.864C217.593 138.864 209.003 140.932 204.561 142.254L211.328 142.156C215.513 142.095 219.784 142.033 221.521 142.033C222.878 142.063 224.233 141.907 225.547 141.568C225.082 140.762 224.416 140.089 223.614 139.615C222.812 139.141 221.902 138.883 220.971 138.864H220.677Z" fill="#263238"/>
<path d="M268.301 155.849C264.624 156.683 260.863 157.093 257.092 157.072C252.198 156.828 247.829 155.359 249.75 157.549C251.671 159.74 255.599 161.698 261.681 160.474C267.763 159.25 270.002 158.039 268.301 155.849Z" fill="#263238"/>
<path d="M224.201 155.849C220.524 156.683 216.763 157.093 212.992 157.072C208.098 156.828 203.741 155.359 205.65 157.549C207.559 159.74 211.499 161.698 217.593 160.474C223.687 159.25 225.865 158.039 224.201 155.849Z" fill="#263238"/>
<path d="M143.121 296.276C143.121 296.276 150.463 255.895 153.791 251.943C157.12 247.99 193.463 218.268 195.457 216.273C197.452 214.278 211.793 192.595 212.466 195.263C213.139 197.93 210.802 209.604 206.458 215.93C202.114 222.257 196.13 229.941 196.13 229.941C196.13 229.941 218.523 235.607 219.747 236.941C220.971 238.274 228.68 254.867 229.083 256.935C229.793 260.508 228.765 264.339 225.755 264.608C223.014 264.84 205.087 255.602 205.087 255.602L190.795 257.559C190.795 257.559 180.467 270.224 173.456 272.562C170.311 273.712 167.078 274.604 163.789 275.229L164.131 299.898L143.121 296.276Z" fill="white"/>
<path d="M164.132 300.559H164.022L143.023 296.888C142.861 296.858 142.716 296.766 142.62 296.631C142.531 296.498 142.496 296.336 142.522 296.178C142.828 294.526 149.925 255.638 153.327 251.564C155.554 248.884 171.78 235.35 183.625 225.475C189.621 220.47 194.368 216.518 195.029 215.845C195.69 215.172 197.562 212.553 199.801 209.433C208.514 197.294 211.096 194.21 212.381 194.455C212.546 194.49 212.698 194.572 212.818 194.691C212.937 194.811 213.019 194.963 213.054 195.128C213.776 198.016 211.365 209.873 206.935 216.298C203.411 221.425 198.761 227.506 197.146 229.587C202.359 230.92 218.903 235.228 220.2 236.512C221.497 237.797 229.267 254.659 229.696 256.838C229.982 257.982 230.038 259.172 229.86 260.338C229.681 261.504 229.272 262.623 228.655 263.629C228.323 264.082 227.898 264.459 227.408 264.736C226.919 265.012 226.376 265.181 225.816 265.232C223.027 265.477 207.462 257.547 205.014 256.25L191.113 258.171C189.755 259.823 180.357 270.959 173.652 273.186C170.632 274.253 167.546 275.124 164.413 275.792L164.743 299.935C164.742 300.025 164.722 300.115 164.684 300.197C164.646 300.279 164.591 300.352 164.523 300.412C164.412 300.501 164.274 300.553 164.132 300.559ZM143.88 295.774L163.459 299.164L163.128 275.229C163.13 275.08 163.185 274.936 163.284 274.823C163.383 274.711 163.518 274.638 163.667 274.617C166.919 273.997 170.115 273.113 173.223 271.974C179.966 269.723 190.171 257.29 190.269 257.168C190.368 257.049 190.508 256.971 190.661 256.948L205.063 255.002C205.185 254.979 205.311 255.001 205.418 255.063C212.295 258.6 223.92 264.18 225.755 263.996C226.145 263.961 226.523 263.843 226.864 263.649C227.204 263.454 227.498 263.189 227.725 262.87C228.239 262.003 228.575 261.043 228.716 260.046C228.857 259.048 228.799 258.033 228.545 257.058C228.105 254.855 220.481 238.47 219.38 237.369C218.34 236.451 204.476 232.682 195.996 230.529C195.898 230.503 195.808 230.454 195.733 230.385C195.659 230.316 195.603 230.23 195.57 230.134C195.538 230.039 195.529 229.936 195.546 229.836C195.562 229.736 195.603 229.642 195.665 229.562C195.665 229.476 201.698 221.829 205.969 215.588C210.239 209.347 212.246 198.86 211.952 195.826C210.092 197.196 204.121 205.529 200.805 210.143C198.443 213.434 196.583 216.028 195.91 216.701C195.237 217.374 190.673 221.18 184.42 226.405C173.272 235.693 156.435 249.74 154.269 252.334C151.663 255.455 145.96 284.174 143.88 295.774Z" fill="#263238"/>
<path d="M229.132 257.559C229.032 257.562 228.933 257.538 228.846 257.491C228.758 257.444 228.683 257.375 228.63 257.29C224.751 251.576 218.29 242.251 217.471 241.603C216.651 240.954 206.311 239.4 197.121 238.164C196.959 238.142 196.812 238.055 196.713 237.925C196.615 237.794 196.572 237.629 196.595 237.467C196.618 237.305 196.704 237.158 196.835 237.059C196.965 236.961 197.13 236.918 197.292 236.941C201.893 237.565 217.018 239.657 218.241 240.612C219.465 241.566 228.606 255.039 229.634 256.519C229.68 256.586 229.713 256.661 229.73 256.74C229.747 256.819 229.748 256.901 229.733 256.981C229.719 257.061 229.688 257.137 229.644 257.204C229.599 257.272 229.542 257.33 229.475 257.376C229.38 257.468 229.261 257.532 229.132 257.559Z" fill="#263238"/>
<path d="M228.313 262.613C228.224 262.613 228.136 262.593 228.055 262.555C227.975 262.517 227.904 262.462 227.848 262.393C225.229 259.37 219.992 253.411 218.903 252.493C218.022 251.784 207.694 249.141 198.406 247.011C198.249 246.974 198.113 246.875 198.029 246.738C197.944 246.6 197.917 246.435 197.954 246.277C197.971 246.199 198.004 246.124 198.05 246.059C198.097 245.993 198.156 245.937 198.225 245.895C198.293 245.853 198.369 245.825 198.449 245.813C198.529 245.801 198.61 245.805 198.688 245.824C201.93 246.559 218.266 250.34 219.686 251.563C221.105 252.787 228.459 261.23 228.778 261.597C228.831 261.657 228.872 261.727 228.897 261.803C228.923 261.879 228.933 261.959 228.928 262.039C228.922 262.119 228.9 262.196 228.864 262.268C228.828 262.339 228.778 262.402 228.716 262.454C228.607 262.557 228.463 262.614 228.313 262.613Z" fill="#263238"/>
<path d="M228.705 416.44C228.705 416.44 202.518 411.545 201.478 411.202C200.438 410.86 181.899 405.268 179.452 404.215C177.005 403.163 147.331 397.938 145.936 400.03C144.541 402.123 143.146 414.347 142.791 415.387C142.436 416.428 139.646 421.322 140.344 424.124C140.721 426.668 140.721 429.253 140.344 431.797C140.344 431.797 139.989 448.206 144.174 448.561C148.359 448.916 152.213 433.192 152.213 433.192C152.213 433.192 158.148 436.691 170.36 437.389C182.572 438.086 194.454 432.152 194.454 432.152L226.955 439.885L228.705 416.44Z" fill="white"/>
<path d="M144.344 449.173H144.161C139.633 448.793 139.707 434.623 139.756 431.785C140.126 429.294 140.126 426.762 139.756 424.271C139.144 421.824 140.845 418.153 141.763 416.232C141.971 415.767 142.142 415.4 142.215 415.204C142.289 415.008 142.521 413.503 142.741 411.986C143.598 406.345 144.442 401.156 145.421 399.688C147.257 396.947 177.897 402.882 179.684 403.653C181.47 404.424 192.961 407.96 198.455 409.649L201.624 410.615C202.419 410.872 218.303 413.882 228.777 415.84C228.926 415.867 229.06 415.948 229.153 416.068C229.245 416.188 229.29 416.338 229.279 416.489L227.566 439.885C227.561 439.974 227.537 440.061 227.494 440.139C227.452 440.218 227.393 440.285 227.321 440.338C227.251 440.392 227.169 440.429 227.082 440.446C226.995 440.463 226.905 440.459 226.819 440.436L194.564 432.812C192.924 433.583 181.74 438.662 170.36 438.013C160.374 437.438 154.574 435.052 152.653 434.11C151.674 437.891 148.419 449.173 144.344 449.173ZM148.456 400.128C147.77 400.056 147.077 400.153 146.437 400.41C145.556 401.731 144.528 408.523 143.99 412.169C143.684 414.237 143.525 415.241 143.414 415.583C143.304 415.926 143.145 416.22 142.901 416.746C142.117 418.434 140.453 421.971 140.979 423.978C141.376 426.598 141.376 429.262 140.979 431.882C140.845 438.392 141.775 447.79 144.271 447.949C146.963 448.12 150.218 438.931 151.613 433.057C151.637 432.964 151.682 432.878 151.743 432.804C151.804 432.73 151.881 432.67 151.968 432.629C152.054 432.587 152.148 432.565 152.243 432.565C152.339 432.565 152.433 432.587 152.518 432.629C152.518 432.629 158.502 436.055 170.396 436.74C182.29 437.426 194.062 431.626 194.184 431.564C194.315 431.521 194.457 431.521 194.588 431.564L226.403 439.078L228.055 416.954C223.65 416.134 202.285 412.133 201.281 411.79L198.137 410.823C192.19 409 181.14 405.61 179.231 404.791C176.845 403.75 155.357 400.128 148.456 400.128Z" fill="#263238"/>
<path d="M138.14 289.154L173.247 295.579L171.938 317.519C171.938 317.519 179.708 321.19 182.07 342.861C184.431 364.532 191.198 414.727 189.509 418.447C187.821 422.167 177.346 438.392 153.008 439.408C128.669 440.424 115.49 418.116 113.128 411.007C110.767 403.897 123.273 357.398 123.946 353.348C124.619 349.297 127.996 321.533 131.043 316.846C132.921 313.95 135.194 311.33 137.797 309.063L138.14 289.154Z" fill="#CDAFAF"/>
<path d="M151.393 440.069C127.177 440.069 114.683 417.443 112.554 411.227C110.645 405.512 117.718 376.573 121.511 361.057C122.49 357.043 123.2 354.143 123.347 353.287C123.494 352.43 123.665 351.145 123.934 349.236C125.231 339.936 127.948 320.578 130.53 316.564C132.387 313.693 134.631 311.09 137.199 308.831L137.529 289.167C137.529 289.078 137.549 288.99 137.587 288.909C137.625 288.829 137.681 288.758 137.75 288.702C137.82 288.647 137.901 288.607 137.987 288.586C138.074 288.565 138.164 288.563 138.251 288.579L173.395 294.991C173.544 295.018 173.678 295.099 173.77 295.219C173.863 295.339 173.908 295.489 173.896 295.64L172.575 317.225C174.202 318.278 180.578 323.552 182.682 342.849C183.27 348.257 184.151 355.55 185.13 363.272C188.715 393.031 191.358 416.024 190.122 418.753C190.024 418.948 180.639 438.918 153.082 440.056L151.393 440.069ZM138.741 289.889L138.41 309.1C138.41 309.189 138.391 309.277 138.353 309.357C138.314 309.438 138.259 309.509 138.19 309.565C135.638 311.792 133.406 314.362 131.558 317.201C129.11 320.982 126.333 340.891 125.146 349.383C124.877 351.304 124.669 352.748 124.546 353.47C124.399 354.376 123.69 357.288 122.698 361.314C119.199 375.643 111.918 405.451 113.717 410.848C115.773 416.966 128.462 439.848 152.984 438.808C175.23 437.891 186.488 423.635 188.96 418.214C190.183 415.583 186.512 385.42 183.869 363.394C182.939 355.66 182.058 348.367 181.422 342.959C179.122 321.912 171.694 318.131 171.633 318.094C171.525 318.04 171.435 317.955 171.374 317.851C171.314 317.747 171.284 317.627 171.29 317.507L172.612 296.08L138.741 289.889Z" fill="#263238"/>
<path d="M165.907 315.451C163.919 315.442 161.933 315.316 159.96 315.072C159.799 315.053 159.653 314.972 159.552 314.846C159.451 314.72 159.404 314.559 159.421 314.399C159.443 314.237 159.527 314.091 159.655 313.99C159.783 313.889 159.945 313.843 160.107 313.86C162.031 314.095 163.968 314.217 165.907 314.227C166.069 314.227 166.225 314.292 166.339 314.406C166.454 314.521 166.519 314.677 166.519 314.839C166.519 315.001 166.454 315.157 166.339 315.272C166.225 315.386 166.069 315.451 165.907 315.451Z" fill="#263238"/>
<path d="M151.774 313.664H151.639C146.883 312.61 142.192 311.278 137.592 309.675C137.443 309.617 137.324 309.503 137.258 309.358C137.193 309.213 137.186 309.048 137.241 308.898C137.295 308.748 137.405 308.625 137.548 308.556C137.692 308.486 137.856 308.475 138.008 308.525C142.556 310.11 147.193 311.426 151.896 312.465C151.975 312.483 152.05 312.515 152.116 312.562C152.182 312.608 152.239 312.667 152.282 312.735C152.325 312.804 152.354 312.88 152.368 312.959C152.382 313.039 152.379 313.121 152.361 313.199C152.331 313.332 152.256 313.45 152.149 313.535C152.042 313.619 151.91 313.665 151.774 313.664Z" fill="#263238"/>
<path d="M331.346 300.18L327.858 390.253C327.858 390.253 324.016 390.608 322.621 392.346C321.692 393.551 320.873 394.837 320.174 396.188C320.174 396.188 284.92 397.583 268.156 402.478C258.534 405.214 249.186 408.835 240.232 413.295L224.863 412.965L221.718 453.456L242.324 454.153C242.324 454.153 252.444 460.088 298.527 464.285C344.61 468.482 365.914 469.522 370.797 463.93C375.679 458.338 377.784 449.613 378.481 445.086C379.179 440.558 387.561 412.61 387.561 372.107C387.561 331.603 349.505 272.99 341.123 259.689C332.741 246.387 323.991 247.452 318.081 248.871" fill="#CDAFAF"/>
<path d="M351.255 468.36C339.569 468.36 322.462 467.063 298.478 464.885C255.087 460.932 243.56 455.499 242.19 454.753L221.742 454.055C221.659 454.056 221.576 454.039 221.499 454.005C221.423 453.971 221.354 453.921 221.299 453.858C221.243 453.796 221.202 453.722 221.177 453.642C221.152 453.562 221.145 453.478 221.155 453.394L224.251 412.965C224.26 412.808 224.331 412.661 224.448 412.556C224.565 412.45 224.718 412.395 224.875 412.402L240.085 412.744C249.04 408.313 258.378 404.701 267.985 401.952C283.721 397.363 316.05 395.833 319.794 395.65C320.468 394.359 321.254 393.131 322.144 391.979C323.368 390.449 326.109 389.899 327.271 389.727L330.734 300.167C330.734 300.086 330.75 300.005 330.783 299.931C330.815 299.856 330.863 299.789 330.923 299.734C330.983 299.679 331.053 299.636 331.13 299.61C331.207 299.583 331.289 299.573 331.37 299.58C331.451 299.583 331.53 299.602 331.603 299.636C331.676 299.67 331.741 299.717 331.796 299.776C331.85 299.835 331.893 299.905 331.921 299.98C331.948 300.056 331.961 300.136 331.958 300.216L328.47 390.29C328.465 390.438 328.406 390.579 328.305 390.687C328.204 390.795 328.067 390.863 327.92 390.878C326.916 390.963 324.114 391.477 323.098 392.737C322.201 393.911 321.407 395.16 320.724 396.47C320.677 396.57 320.603 396.655 320.51 396.715C320.417 396.776 320.309 396.809 320.198 396.812C319.856 396.812 284.822 398.256 268.327 403.077C258.749 405.817 249.439 409.422 240.513 413.846C240.418 413.893 240.314 413.918 240.207 413.919L225.426 413.589L222.379 452.868L242.337 453.541C242.439 453.549 242.539 453.578 242.63 453.627C242.728 453.627 253.325 459.562 298.588 463.673C344.476 467.846 365.719 468.813 370.344 463.526C375.618 457.506 377.441 447.815 377.882 444.988C377.992 444.217 378.31 442.895 378.775 440.876C384.194 418.354 386.938 395.271 386.949 372.106C386.949 346.238 371.665 309.014 341.539 261.475L340.609 260.019C331.909 246.241 322.658 248.419 318.228 249.459C318.069 249.496 317.902 249.469 317.763 249.385C317.623 249.3 317.522 249.164 317.482 249.006C317.464 248.927 317.461 248.846 317.475 248.766C317.489 248.686 317.518 248.61 317.561 248.542C317.604 248.474 317.661 248.415 317.727 248.368C317.793 248.322 317.868 248.289 317.947 248.272C325.13 246.583 333.573 246.583 341.649 259.358L342.567 260.827C372.828 308.549 388.173 346.006 388.173 372.106C388.158 395.365 385.406 418.542 379.974 441.158C379.521 443.067 379.203 444.449 379.093 445.171C378.64 448.084 376.756 458.057 371.262 464.334C368.802 467.136 362.574 468.36 351.255 468.36Z" fill="#263238"/>
<path d="M327.859 390.865C327.752 390.867 327.646 390.84 327.553 390.786C327.46 390.732 327.384 390.654 327.333 390.559C327.262 390.439 327.234 390.299 327.254 390.161C327.274 390.023 327.341 389.896 327.443 389.801L347.695 370.956C347.75 370.899 347.817 370.854 347.891 370.823C347.964 370.792 348.043 370.776 348.123 370.776C348.203 370.776 348.282 370.792 348.355 370.823C348.429 370.854 348.495 370.899 348.551 370.956C348.609 371.013 348.654 371.081 348.685 371.155C348.716 371.23 348.732 371.31 348.732 371.391C348.732 371.471 348.716 371.551 348.685 371.626C348.654 371.701 348.609 371.768 348.551 371.825L330.196 388.956L349.151 383.45C349.313 383.404 349.487 383.425 349.634 383.508C349.78 383.591 349.889 383.728 349.934 383.89C349.979 384.053 349.958 384.226 349.876 384.373C349.793 384.52 349.656 384.628 349.493 384.674L328.067 390.89L327.859 390.865Z" fill="#263238"/>
<path d="M355.99 382.703C355.828 382.724 355.664 382.68 355.535 382.58C355.405 382.481 355.32 382.333 355.299 382.171C355.278 382.009 355.322 381.845 355.422 381.715C355.522 381.586 355.669 381.501 355.831 381.48L362.598 379.522C362.675 379.498 362.757 379.489 362.837 379.497C362.917 379.505 362.995 379.529 363.066 379.568C363.137 379.607 363.199 379.66 363.249 379.723C363.299 379.787 363.336 379.86 363.357 379.938C363.402 380.094 363.384 380.261 363.306 380.403C363.228 380.546 363.097 380.651 362.941 380.697L356.162 382.654C356.109 382.684 356.051 382.7 355.99 382.703Z" fill="#263238"/>
<path d="M351.598 402.037H351.378C342.494 398.611 320.358 396.849 320.125 396.837C320.045 396.83 319.967 396.808 319.895 396.771C319.823 396.735 319.759 396.684 319.707 396.623C319.655 396.562 319.615 396.491 319.59 396.414C319.566 396.337 319.556 396.256 319.563 396.176C319.569 396.096 319.591 396.017 319.628 395.946C319.665 395.874 319.715 395.81 319.776 395.758C319.838 395.705 319.909 395.666 319.985 395.641C320.062 395.616 320.143 395.607 320.223 395.613C321.141 395.687 342.763 397.412 351.818 400.887C351.899 400.902 351.975 400.932 352.044 400.976C352.113 401.02 352.172 401.077 352.219 401.144C352.265 401.211 352.298 401.287 352.316 401.367C352.333 401.446 352.334 401.529 352.32 401.609C352.305 401.689 352.275 401.766 352.231 401.835C352.187 401.904 352.13 401.963 352.063 402.009C351.996 402.056 351.92 402.089 351.84 402.106C351.761 402.124 351.678 402.125 351.598 402.111V402.037Z" fill="#263238"/>
<path d="M357.887 420.196C357.792 420.196 357.698 420.173 357.614 420.131C357.529 420.088 357.455 420.027 357.397 419.952C356.479 418.728 355.476 417.615 354.411 416.501C354.313 416.382 354.264 416.23 354.273 416.076C354.282 415.922 354.348 415.777 354.46 415.67C354.571 415.563 354.719 415.502 354.874 415.5C355.028 415.497 355.178 415.553 355.292 415.657C356.376 416.787 357.401 417.971 358.364 419.205C358.464 419.332 358.51 419.493 358.491 419.654C358.473 419.814 358.392 419.961 358.266 420.062C358.157 420.146 358.024 420.193 357.887 420.196Z" fill="#263238"/>
<path d="M350.582 412.744C350.441 412.741 350.304 412.694 350.19 412.61C343.977 407.578 336.809 403.857 329.119 401.67C329.039 401.652 328.963 401.618 328.896 401.57C328.828 401.522 328.771 401.461 328.728 401.391C328.684 401.322 328.654 401.244 328.641 401.162C328.627 401.081 328.629 400.998 328.648 400.918C328.666 400.837 328.7 400.761 328.748 400.694C328.796 400.627 328.857 400.57 328.927 400.526C328.996 400.482 329.074 400.453 329.156 400.439C329.237 400.426 329.32 400.428 329.4 400.447C337.274 402.67 344.614 406.471 350.974 411.619C351.073 411.698 351.145 411.807 351.18 411.93C351.214 412.052 351.21 412.183 351.166 412.303C351.123 412.423 351.044 412.526 350.939 412.599C350.834 412.671 350.709 412.709 350.582 412.708V412.744Z" fill="#263238"/>
<path d="M240.231 451.62C240.069 451.62 239.913 451.556 239.798 451.441C239.683 451.326 239.619 451.171 239.619 451.008L239.325 417.15C239.324 417.069 239.338 416.989 239.367 416.914C239.396 416.84 239.44 416.771 239.496 416.713C239.552 416.655 239.618 416.609 239.692 416.577C239.765 416.545 239.845 416.527 239.925 416.525C240.087 416.525 240.243 416.59 240.358 416.705C240.472 416.819 240.537 416.975 240.537 417.137L240.892 450.996C240.892 451.159 240.828 451.316 240.713 451.433C240.599 451.55 240.443 451.617 240.28 451.62H240.231Z" fill="#263238"/>
<path d="M237.783 443.238H223.099C222.937 443.238 222.781 443.174 222.666 443.059C222.552 442.944 222.487 442.788 222.487 442.626C222.487 442.464 222.552 442.308 222.666 442.194C222.781 442.079 222.937 442.014 223.099 442.014H237.783C237.945 442.014 238.101 442.079 238.216 442.194C238.33 442.308 238.395 442.464 238.395 442.626C238.392 442.788 238.326 442.941 238.212 443.055C238.098 443.169 237.944 443.235 237.783 443.238Z" fill="#263238"/>
<path d="M226.613 423.329C226.457 423.329 226.307 423.27 226.193 423.163C226.079 423.056 226.011 422.91 226.001 422.754C225.996 422.674 226.007 422.594 226.034 422.519C226.06 422.443 226.101 422.374 226.155 422.315C226.208 422.255 226.273 422.207 226.346 422.174C226.418 422.14 226.496 422.121 226.576 422.118L232.511 421.763C232.591 421.758 232.672 421.769 232.748 421.795C232.824 421.821 232.894 421.862 232.955 421.916C233.015 421.969 233.064 422.034 233.099 422.106C233.134 422.179 233.155 422.257 233.16 422.338C233.166 422.499 233.11 422.657 233.003 422.778C232.896 422.899 232.746 422.974 232.584 422.986L226.65 423.329H226.613Z" fill="#263238"/>
</svg>
