<svg width="14" height="14" viewBox="0 0 14 14" fill="none" xmlns="http://www.w3.org/2000/svg">
<path d="M13.1666 7.00003H4.92992M2.02259 7.00003H0.833252M2.02259 7.00003C2.02259 6.61458 2.1757 6.24492 2.44826 5.97237C2.72081 5.69981 3.09047 5.5467 3.47592 5.5467C3.86137 5.5467 4.23103 5.69981 4.50358 5.97237C4.77613 6.24492 4.92925 6.61458 4.92925 7.00003C4.92925 7.38548 4.77613 7.75514 4.50358 8.02769C4.23103 8.30024 3.86137 8.45336 3.47592 8.45336C3.09047 8.45336 2.72081 8.30024 2.44826 8.02769C2.1757 7.75514 2.02259 7.38548 2.02259 7.00003ZM13.1666 11.4047H9.33458M9.33458 11.4047C9.33458 11.7902 9.1811 12.1603 8.90848 12.4329C8.63587 12.7055 8.26612 12.8587 7.88058 12.8587C7.49514 12.8587 7.12548 12.7049 6.85292 12.4324C6.58037 12.1598 6.42725 11.7901 6.42725 11.4047M9.33458 11.4047C9.33458 11.0192 9.1811 10.6497 8.90848 10.3771C8.63587 10.1045 8.26612 9.95136 7.88058 9.95136C7.49514 9.95136 7.12548 10.1045 6.85292 10.377C6.58037 10.6496 6.42725 11.0192 6.42725 11.4047M6.42725 11.4047H0.833252M13.1666 2.59536H11.0966M8.18925 2.59536H0.833252M8.18925 2.59536C8.18925 2.20991 8.34237 1.84025 8.61492 1.5677C8.88748 1.29515 9.25714 1.14203 9.64258 1.14203C9.83344 1.14203 10.0224 1.17962 10.1988 1.25266C10.3751 1.32569 10.5353 1.43275 10.6702 1.5677C10.8052 1.70265 10.9123 1.86287 10.9853 2.0392C11.0583 2.21552 11.0959 2.40451 11.0959 2.59536C11.0959 2.78622 11.0583 2.9752 10.9853 3.15153C10.9123 3.32786 10.8052 3.48807 10.6702 3.62302C10.5353 3.75798 10.3751 3.86503 10.1988 3.93807C10.0224 4.0111 9.83344 4.0487 9.64258 4.0487C9.25714 4.0487 8.88748 3.89558 8.61492 3.62302C8.34237 3.35047 8.18925 2.98081 8.18925 2.59536Z" stroke="black" stroke-opacity="0.48" stroke-miterlimit="10" stroke-linecap="round"/>
</svg>
