<svg width="15" height="19" viewBox="0 0 15 19" fill="none" xmlns="http://www.w3.org/2000/svg">
<path d="M13.1723 8.70024C12.9423 8.40024 12.6623 8.14024 12.4023 7.88024C11.7323 7.28024 10.9723 6.85024 10.3323 6.22024C8.84226 4.76024 8.51226 2.35024 9.46226 0.500244C8.51226 0.730244 7.68226 1.25024 6.97226 1.82024C4.38226 3.90024 3.36226 7.57024 4.58226 10.7202C4.62226 10.8202 4.66226 10.9202 4.66226 11.0502C4.66226 11.2702 4.51226 11.4702 4.31226 11.5502C4.08226 11.6502 3.84226 11.5902 3.65226 11.4302C3.5955 11.3827 3.54803 11.3251 3.51226 11.2602C2.38226 9.83024 2.20226 7.78024 2.96226 6.14024C1.29226 7.50024 0.382257 9.80024 0.512257 11.9702C0.572257 12.4702 0.632257 12.9702 0.802257 13.4702C0.942257 14.0702 1.21226 14.6702 1.51226 15.2002C2.59226 16.9302 4.46226 18.1702 6.47226 18.4202C8.61226 18.6902 10.9023 18.3002 12.5423 16.8202C14.3723 15.1602 15.0123 12.5002 14.0723 10.2202L13.9423 9.96024C13.7323 9.50024 13.1723 8.70024 13.1723 8.70024ZM10.0123 15.0002C9.73226 15.2402 9.27226 15.5002 8.91226 15.6002C7.79226 16.0002 6.67226 15.4402 6.01226 14.7802C7.20226 14.5002 7.91226 13.6202 8.12226 12.7302C8.29226 11.9302 7.97226 11.2702 7.84226 10.5002C7.72226 9.76024 7.74226 9.13024 8.01226 8.44024C8.20226 8.82024 8.40226 9.20024 8.64226 9.50024C9.41226 10.5002 10.6223 10.9402 10.8823 12.3002C10.9223 12.4402 10.9423 12.5802 10.9423 12.7302C10.9723 13.5502 10.6123 14.4502 10.0123 15.0002Z" fill="white"/>
</svg>
