<svg width="25" height="24" viewBox="0 0 25 24" fill="none" xmlns="http://www.w3.org/2000/svg">
<path d="M20.5 18C20.7549 18.0003 21 18.0979 21.1854 18.2728C21.3707 18.4478 21.4822 18.687 21.4972 18.9414C21.5121 19.1958 21.4293 19.4464 21.2657 19.6418C21.1021 19.8373 20.8701 19.9629 20.617 19.993L20.5 20H4.5C4.24512 19.9997 3.99997 19.9021 3.81463 19.7272C3.6293 19.5522 3.51777 19.313 3.50283 19.0586C3.48789 18.8042 3.57067 18.5536 3.73426 18.3582C3.89786 18.1627 4.1299 18.0371 4.383 18.007L4.5 18H20.5ZM20.5 11C20.7652 11 21.0196 11.1054 21.2071 11.2929C21.3946 11.4804 21.5 11.7348 21.5 12C21.5 12.2652 21.3946 12.5196 21.2071 12.7071C21.0196 12.8946 20.7652 13 20.5 13H4.5C4.23478 13 3.98043 12.8946 3.79289 12.7071C3.60536 12.5196 3.5 12.2652 3.5 12C3.5 11.7348 3.60536 11.4804 3.79289 11.2929C3.98043 11.1054 4.23478 11 4.5 11H20.5ZM20.5 4C20.7652 4 21.0196 4.10536 21.2071 4.29289C21.3946 4.48043 21.5 4.73478 21.5 5C21.5 5.26522 21.3946 5.51957 21.2071 5.70711C21.0196 5.89464 20.7652 6 20.5 6H4.5C4.23478 6 3.98043 5.89464 3.79289 5.70711C3.60536 5.51957 3.5 5.26522 3.5 5C3.5 4.73478 3.60536 4.48043 3.79289 4.29289C3.98043 4.10536 4.23478 4 4.5 4H20.5Z" fill="#F3F3F3"/>
</svg>
