<svg width="54" height="54" viewBox="0 0 54 54" fill="none" xmlns="http://www.w3.org/2000/svg">
<rect x="1" y="1" width="52" height="52" rx="26" stroke="black" stroke-width="2"/>
<path fill-rule="evenodd" clip-rule="evenodd" d="M14.5451 24.9813C22.3188 20.8544 27.5151 18.187 30.0925 16.8785C37.492 13.1543 39.0301 12.5 40.0278 12.5C40.2357 12.5 40.7345 12.5503 41.0671 12.8523C41.3165 13.1039 41.3996 13.4562 41.4412 13.7079C41.4828 13.9595 41.5244 14.5131 41.4828 14.9661C41.0671 20.0492 39.3627 32.4801 38.4481 38.1672C38.074 40.5829 37.3257 41.3882 36.619 41.4888C35.0809 41.6398 33.8754 40.2306 32.3788 39.0731C30.0509 37.211 28.7206 36.0534 26.4342 34.2416C23.8153 32.1278 25.5197 30.9703 27.0162 29.1082C27.3904 28.6049 34.2495 21.1061 34.3742 20.4015C34.3742 20.3008 34.4158 19.9988 34.2495 19.8479C34.0832 19.6969 33.8754 19.7472 33.7091 19.7975C33.4597 19.8479 29.7183 22.8675 22.4435 28.8062C21.3626 29.7121 20.4065 30.1147 19.5335 30.1147C18.5774 30.1147 16.7483 29.4605 15.3765 28.9069C13.7137 28.2526 12.3834 27.9003 12.5081 26.7931C12.6328 26.1892 13.2979 25.5852 14.5451 24.9813Z" fill="black"/>
</svg>
