<svg width="243" height="243" viewBox="0 0 243 243" fill="none" xmlns="http://www.w3.org/2000/svg">
<path d="M5.07593 121.5C5.07593 211.123 102.096 267.138 179.712 222.326C215.734 201.529 237.924 163.094 237.924 121.5C237.924 31.8769 140.904 -24.1377 63.2881 20.674C27.2663 41.471 5.07593 79.9057 5.07593 121.5Z" fill="#DAEDF7" stroke="#DAEDF7" stroke-width="2"/>
<path opacity="0.15" d="M198.768 195.205C198.768 192.003 164.827 189.384 122.958 189.384C81.0896 189.384 47.1459 192.003 47.1459 195.205C47.1459 198.407 81.0893 201.026 122.958 201.026C164.827 201.026 198.768 198.416 198.768 195.205Z" fill="#45413C"/>
<path d="M175.102 31.0356L195.397 193.392L178.548 192.763L173.344 177.154C172.425 174.399 169.844 172.542 166.94 172.546H126.128C123.224 172.543 120.645 174.399 119.725 177.154L114.523 192.763H94.3151L80.8389 31.0327H97.6855L100.305 52.0852C100.727 55.4604 103.598 57.9919 106.999 57.9878H154.07C158.123 57.9924 161.263 54.4428 160.764 50.4202L158.342 31.0385L175.102 31.0356Z" fill="#FFE500"/>
<path d="M100.317 52.0852L97.697 31.0327H80.8389L83.0829 57.9878H107.002C103.604 57.9888 100.737 55.4578 100.317 52.0852Z" fill="#EBCB00"/>
<path d="M175.102 31.0356L195.397 193.392L178.548 192.763L173.344 177.154C172.425 174.399 169.844 172.542 166.94 172.546H126.128C123.224 172.543 120.645 174.399 119.725 177.154L114.523 192.763H94.3151L80.8389 31.0327H97.6855L100.305 52.0852C100.727 55.4604 103.598 57.9919 106.999 57.9878H154.07C158.123 57.9924 161.263 54.4428 160.764 50.4202L158.342 31.0385L175.102 31.0356Z" stroke="#45413C" stroke-width="2" stroke-linecap="round" stroke-linejoin="round"/>
<path d="M172.191 14.1863H77.0145C75.407 14.1863 74.1039 15.4892 74.1039 17.0967V31.0327H175.102V17.0967C175.102 15.4892 173.798 14.1863 172.191 14.1863Z" fill="#FFE500"/>
<path d="M175.102 17.5538C175.102 15.6927 173.592 14.1846 171.731 14.1863H77.4685C75.6082 14.1861 74.0996 15.6935 74.0979 17.5538V24.2859C74.0979 22.4244 75.607 20.9153 77.4685 20.9155H171.731C173.593 20.9138 175.103 22.4239 175.102 24.2859V17.5538Z" fill="#FFF48C"/>
<path d="M172.191 14.1863H77.0145C75.407 14.1863 74.1039 15.4892 74.1039 17.0967V31.0327H175.102V17.0967C175.102 15.4892 173.798 14.1863 172.191 14.1863Z" stroke="#45413C" stroke-width="2" stroke-linecap="round" stroke-linejoin="round"/>
<path d="M151.596 31.0327L148.976 52.0852C148.554 55.4604 145.683 57.9919 142.282 57.9878H95.2114C91.1581 57.9924 88.0179 54.4428 88.5171 50.4202L90.9416 31.0385H74.0978L53.8839 192.763H70.7303L75.9317 177.153C76.8507 174.399 79.4308 172.542 82.3349 172.546H123.153C126.057 172.542 128.637 174.399 129.556 177.153L134.761 192.763H154.972L168.451 31.0327H151.596Z" fill="#FFF48C"/>
<path d="M167.598 41.1412L168.442 31.0327H151.596L150.332 41.1412H167.598Z" fill="#FFFACF"/>
<path d="M89.6812 41.1412L90.9474 31.0327H74.0981L72.8348 41.1412H89.6812Z" fill="#FFFACF"/>
<path d="M151.596 31.0327L148.976 52.0852C148.554 55.4604 145.683 57.9919 142.282 57.9878H95.2114C91.1581 57.9924 88.0179 54.4428 88.5171 50.4202L90.9416 31.0385H74.0978L53.8839 192.763H70.7303L75.9317 177.153C76.8506 174.399 79.4308 172.542 82.3349 172.546H123.153C126.057 172.542 128.637 174.399 129.556 177.153L134.761 192.763H154.972L168.451 31.0327H151.596Z" stroke="#45413C" stroke-width="2" stroke-linecap="round" stroke-linejoin="round"/>
<path d="M112.006 84.6635C87.2159 84.6589 71.7174 111.492 84.1084 132.963C96.4992 154.434 127.487 154.439 139.885 132.973C142.714 128.076 144.203 122.521 144.203 116.866C144.203 99.0835 129.788 84.6668 112.006 84.6635ZM112.006 96.7396C115.231 96.761 118.402 97.5659 121.247 99.0854L94.2217 126.107C87.1004 112.742 96.8615 96.6224 112.006 96.7396ZM112.006 136.993C108.78 136.972 105.607 136.167 102.762 134.647L129.786 107.625C131.307 110.47 132.112 113.641 132.132 116.866C132.132 127.982 123.122 136.994 112.006 136.993Z" fill="#FF6242" stroke="#E04122" stroke-width="2" stroke-linecap="round" stroke-linejoin="round"/>
</svg>
