<svg width="23" height="14" viewBox="0 0 23 14" fill="none" xmlns="http://www.w3.org/2000/svg">
  <path d="M0 1.4C0 1.0287 0.1475 0.672601 0.410051 0.41005C0.672601 0.1475 1.0287 0 1.4 0H21C21.3713 0 21.7274 0.1475 21.9899 0.41005C22.2525 0.672601 22.4 1.0287 22.4 1.4V12.6C22.4 12.9713 22.2525 13.3274 21.9899 13.5899C21.7274 13.8525 21.3713 14 21 14H1.4C1.0287 14 0.672601 13.8525 0.410051 13.5899C0.1475 13.3274 0 12.9713 0 12.6V1.4ZM4.2 1.4C4.2 2.14261 3.905 2.8548 3.3799 3.3799C2.8548 3.905 2.14261 4.2 1.4 4.2V9.8C2.14261 9.8 2.8548 10.095 3.3799 10.6201C3.905 11.1452 4.2 11.8574 4.2 12.6H18.2C18.2 11.8574 18.495 11.1452 19.0201 10.6201C19.5452 10.095 20.2574 9.8 21 9.8V4.2C20.2574 4.2 19.5452 3.905 19.0201 3.3799C18.495 2.8548 18.2 2.14261 18.2 1.4H4.2Z" fill="black"/>
</svg>
