<svg width="37" height="31" viewBox="0 0 37 31" fill="none" xmlns="http://www.w3.org/2000/svg">
<rect width="37" height="31" rx="5" fill="#3E6FD9" fill-opacity="0.31"/>
<path d="M24 12H23V10C23 7.24 20.76 5 18 5C15.24 5 13 7.24 13 10V12H12C10.9 12 10 12.9 10 14V24C10 25.1 10.9 26 12 26H24C25.1 26 26 25.1 26 24V14C26 12.9 25.1 12 24 12ZM18 21C16.9 21 16 20.1 16 19C16 17.9 16.9 17 18 17C19.1 17 20 17.9 20 19C20 20.1 19.1 21 18 21ZM15 12V10C15 8.34 16.34 7 18 7C19.66 7 21 8.34 21 10V12H15Z" fill="#0843C3"/>
</svg>
