<svg width="34" height="29" viewBox="0 0 34 29" fill="none" xmlns="http://www.w3.org/2000/svg">
<rect y="0.500244" width="34.0026" height="27.9995" rx="5" fill="#C3D2F3"/>
<path d="M22.6723 13.7002C22.4423 13.4002 22.1623 13.1402 21.9023 12.8802C21.2323 12.2802 20.4723 11.8502 19.8323 11.2202C18.3423 9.76024 18.0123 7.35024 18.9623 5.50024C18.0123 5.73024 17.1823 6.25024 16.4723 6.82024C13.8823 8.90024 12.8623 12.5702 14.0823 15.7202C14.1223 15.8202 14.1623 15.9202 14.1623 16.0502C14.1623 16.2702 14.0123 16.4702 13.8123 16.5502C13.5823 16.6502 13.3423 16.5902 13.1523 16.4302C13.0955 16.3827 13.048 16.3251 13.0123 16.2602C11.8823 14.8302 11.7023 12.7802 12.4623 11.1402C10.7923 12.5002 9.88226 14.8002 10.0123 16.9702C10.0723 17.4702 10.1323 17.9702 10.3023 18.4702C10.4423 19.0702 10.7123 19.6702 11.0123 20.2002C12.0923 21.9302 13.9623 23.1702 15.9723 23.4202C18.1123 23.6902 20.4023 23.3002 22.0423 21.8202C23.8723 20.1602 24.5123 17.5002 23.5723 15.2202L23.4423 14.9602C23.2323 14.5002 22.6723 13.7002 22.6723 13.7002ZM19.5123 20.0002C19.2323 20.2402 18.7723 20.5002 18.4123 20.6002C17.2923 21.0002 16.1723 20.4402 15.5123 19.7802C16.7023 19.5002 17.4123 18.6202 17.6223 17.7302C17.7923 16.9302 17.4723 16.2702 17.3423 15.5002C17.2223 14.7602 17.2423 14.1302 17.5123 13.4402C17.7023 13.8202 17.9023 14.2002 18.1423 14.5002C18.9123 15.5002 20.1223 15.9402 20.3823 17.3002C20.4223 17.4402 20.4423 17.5802 20.4423 17.7302C20.4723 18.5502 20.1123 19.4502 19.5123 20.0002Z" fill="#0843C3"/>
</svg>
